PathFileType	4	(X/Y/Z)	AB13\squats_1.trc
DataRate	CameraRate	NumFrames	NumMarkers	Units	OrigDataRate	OrigDataStartFrame	OrigNumFrames
200.000000	200.000000	4	35	mm	200.000000	118	316
Frame#	Time	C7			LSHO			STRN			LASI			RASI			LPSI			RPSI			LGTR			RGTR			LTHC			LTHL			LTHR			LKNE			LMKNE			LSHC			LSHL			LSHR			LANK			LMANK			LMT1			LMT5			LCAL			RTHC			RTHL			RTHR			RKNE			RSHC			RSHL			RSHR			RANK			RMANK			RMT1			RMT5			RCAL			RMKNE			
		X1	Y1	Z1	X2	Y2	Z2	X3	Y3	Z3	X4	Y4	Z4	X5	Y5	Z5	X6	Y6	Z6	X7	Y7	Z7	X8	Y8	Z8	X9	Y9	Z9	X10	Y10	Z10	X11	Y11	Z11	X12	Y12	Z12	X13	Y13	Z13	X14	Y14	Z14	X15	Y15	Z15	X16	Y16	Z16	X17	Y17	Z17	X18	Y18	Z18	X19	Y19	Z19	X20	Y20	Z20	X21	Y21	Z21	X22	Y22	Z22	X23	Y23	Z23	X24	Y24	Z24	X25	Y25	Z25	X26	Y26	Z26	X27	Y27	Z27	X28	Y28	Z28	X29	Y29	Z29	X30	Y30	Z30	X31	Y31	Z31	X32	Y32	Z32	X33	Y33	Z33	X34	Y34	Z34	X35	Y35	Z35	

119	33.28	-3553.561852587564	1046.553255578584	2472.325254325514	-3624.725942449086	985.3289520084844	2613.683964475464	-3638.126716540209	888.9206527260721	2463.56706791411	-3484.34701390241	591.1205464029365	2595.040926456973	-3464.005072984685	580.2543458500113	2332.170783048669	-3269.712658495601	687.8886431322975	2520.088831445467	-3275.533698332766	696.9086538985907	2444.904273318753	-3378.309602145092	619.2840348655342	2676.646030152098	-3353.870532631046	592.5804375240522	2261.251998315742	-3483.69207637068	518.2708456552415	2693.301826264811	-3529.644276779806	371.8653999766087	2622.094459379097	-3546.671675356641	555.5577979330131	2614.255137613197	-3675.531141703613	398.0174784096444	2710.068153011842	-3689.179718514644	382.757984722172	2592.493494717186	-3513.603562668898	217.3654552827599	2706.820557958731	-3592.934864062276	205.4464066175199	2671.088563038205	-3463.0280317888	212.9406705193162	2631.83624744866	-3425.068806653593	103.2492668546979	2683.530583336834	-3465.637347218681	102.0313581148179	2604.324387262811	-3565.31664234311	52.90490687304382	2655.826077932947	-3517.050257356976	50.09648462651123	2731.634932846014	-3365.634812379071	84.09713091129221	2631.215201500856	-3518.401511290799	366.2596514111157	2300.142328309556	-3446.469828982925	512.4747404382781	2242.62176557805	-3543.793421720597	551.5261586853467	2323.531860969147	-3643.529516081269	398.9461621532271	2215.640720628752	-3446.595937634685	194.6689312817324	2320.056616485046	-3499.025987570902	216.3487946445825	2239.708879398131	-3584.67543929112	216.1470861624544	2256.826567817363	-3419.97191592127	104.7010979471319	2268.563037210128	-3464.854250720622	98.5606977652603	2343.33798413217	-3560.378613422788	51.94877791651565	2281.539101140316	-3485.698395422272	45.78412352711917	2211.339594272629	-3356.234027780184	75.98354125602846	2322.531106140721	-3677.054022870508	389.8347518576331	2334.40591842013	
120	33.285	-3553.974327335543	1043.436232286626	2472.224530251261	-3625.005552927893	982.0197374504985	2613.612772530572	-3638.289534677097	885.6135785999295	2463.544970597417	-3483.811803884405	588.6494877898547	2595.154426884179	-3463.540530627945	578.4646001421785	2332.425836095424	-3268.977981137626	684.9263680292926	2520.322935972035	-3274.770585301419	694.065515672414	2445.151311194527	-3377.629717574708	616.6155370684135	2676.707147201228	-3353.358145691094	590.3965804715091	2261.489895607491	-3483.238136588602	516.4579078374759	2693.447764778228	-3530.099158603954	370.448832708752	2622.184832237216	-3545.998200497107	554.1556152820827	2614.348066018415	-3675.785340327262	397.6435372086841	2710.200631876949	-3689.609802691175	382.3902278150751	2592.615421074457	-3513.835268055419	217.2160526522005	2706.698232609626	-3593.187807321279	205.2396684571845	2671.030188566664	-3463.292516081196	212.8763363554432	2631.687084510973	-3425.187142017964	103.320111633024	2683.33128068315	-3465.834209055929	101.9791804197825	2604.123699878455	-3565.401733156531	52.88151263296271	2655.777683290833	-3517.050406051121	50.08105073560314	2731.504796491158	-3365.765896577281	84.12323612294142	2630.915966446348	-3518.826975901674	364.98201213395	2299.72807334461	-3446.130681541835	510.9547778587685	2242.535949652847	-3543.254080289192	550.3509894040282	2323.565741634331	-3643.749426824451	398.6127281514415	2215.233112353257	-3446.792817318647	194.669423467172	2320.065202619287	-3499.167674444315	216.257145060128	2239.628557997426	-3584.836230089117	215.9611033716153	2256.673136559382	-3420.053092675479	104.7172762588668	2268.647594903046	-3465.013795276496	98.5242152834915	2343.419359437957	-3560.417844356746	51.92697111269106	2281.521867404195	-3485.680402852427	45.82088801256749	2211.371820502848	-3356.334550250585	76.03435744954726	2322.708755034877	-3677.438579956139	389.5054895525105	2334.069895418704	
121	33.29	-3554.369533039941	1040.373907480095	2472.130631230055	-3625.284439483545	978.7729269832145	2613.542181912848	-3638.447252597042	882.3662993264172	2463.514204332029	-3483.254753489258	586.2032042036892	2595.27086728947	-3463.087554218319	576.7098529894934	2332.672751476581	-3268.238101179888	682.0073560798311	2520.547272640757	-3274.010182075622	691.2761591859467	2445.392663907307	-3376.928331612232	613.9645245376521	2676.758787493716	-3352.870889528677	588.2836973054839	2261.711622228298	-3482.765569882901	514.6535357023612	2693.576119760041	-3530.526925546018	369.0588965901838	2622.238419270395	-3545.309944489905	552.7760635309603	2614.43173024287	-3676.008052849405	397.2807343856313	2710.306715130935	-3690.011110643411	382.0365158589076	2592.710207823448	-3514.052257683235	217.0683544140131	2706.559645270892	-3593.42651086725	205.0378818957866	2670.956141095016	-3463.544001990637	212.8047452027773	2631.519830477104	-3425.302485774854	103.3909142239618	2683.127397175722	-3466.029464430015	101.9205579847455	2603.914069152961	-3565.483450828167	52.85845646887585	2655.72602946328	-3517.050118163289	50.06526502186198	2731.373176160464	-3365.891873035897	84.14333619753127	2630.610528848641	-3519.246817318245	363.7414369615735	2299.320724965222	-3445.820346912573	509.4773613677004	2242.450290182086	-3542.73406134793	549.1974005817704	2323.618858214307	-3643.979656621193	398.2873670592876	2214.863297370379	-3446.986453924882	194.6646004132019	2320.080816745919	-3499.312891864734	216.1666619956086	2239.562245439199	-3585.000187845622	215.7803608276741	2256.541788076285	-3420.135054933145	104.73187029707	2268.731969882496	-3465.16894262197	98.48281175220413	2343.502887371547	-3560.456735069889	51.90428017272163	2281.50837287722	-3485.663957338161	45.85826597330817	2211.405628907453	-3356.428783010218	76.08259852015154	2322.879222791134	-3677.805147821961	389.1789074945442	2333.780701953189	
122	33.295	-3554.747148738501	1037.366901998791	2472.044669748286	-3625.562527502055	975.5891302537761	2613.472940267848	-3638.600122190986	879.1792429224955	2463.475459838456	-3482.676964937242	583.7836159842034	2595.388663097793	-3462.645696156255	574.9892183534953	2332.911631758275	-3267.494240346684	679.1349485340584	2520.758995006634	-3273.254057118563	688.5421613317493	2445.625219777477	-3376.207203069986	611.3364371650222	2676.798830436834	-3352.408673747689	586.2398443612705	2261.915539009885	-3482.276108034189	512.8606440886704	2693.684950036721	-3530.926686372499	367.6961976048739	2622.25403040756	-3544.607661099811	551.4204279300141	2614.503150018722	-3676.200483336264	396.9292951360741	2710.384322961745	-3690.38272246056	381.6968921353371	2592.775053082858	-3514.254733974174	216.9224666265233	2706.404757773231	-3593.650534104143	204.8408194036861	2670.865327942643	-3463.781629575173	212.7260965651578	2631.334475807301	-3425.413978337735	103.4614848608995	2682.919353017064	-3466.221887678248	101.854699775101	2603.695840251064	-3565.561280257698	52.83557449531375	2655.671093960754	-3517.049540564801	50.05071028014986	2731.240493860324	-3366.012147846527	84.15707393823638	2630.300218821443	-3519.661247192165	362.5375342577713	2298.925438196086	-3445.538315059501	508.0402193743651	2242.365733100139	-3542.232520547644	548.0653764620267	2323.691803969754	-3644.220991061231	397.9696977318451	2214.535190102268	-3447.176887023078	194.653819336212	2320.104959118524	-3499.462315260302	216.0767013057979	2239.512468826618	-3585.167716167447	215.6047143087115	2256.434925686436	-3420.217440549523	104.7445679233735	2268.817497088929	-3465.31920695279	98.43593950325173	2343.589063648819	-3560.495241509003	51.88065261998587	2281.499244291389	-3485.649236666719	45.89630213106882	2211.441506380083	-3356.516577773508	76.12779915528851	2323.042465662514	-3678.153181307612	388.8548478978576	2333.542297006563	
